<svg width="472" height="792" viewBox="0 0 472 792" fill="none" xmlns="http://www.w3.org/2000/svg">
<g clip-path="url(#clip0_1626_710)">
<rect width="472" height="792" fill="white"/>
<mask id="mask0_1626_710" style="mask-type:alpha" maskUnits="userSpaceOnUse" x="0" y="0" width="472" height="792">
<rect x="0.5" y="0.5" width="471" height="791" rx="8.5" fill="#D9D9D9" stroke="black"/>
</mask>
<g mask="url(#mask0_1626_710)">
<rect x="-6.5" y="0.5" width="485" height="791" fill="white" stroke="black"/>
<path d="M107.706 777.11C107.215 777.11 106.793 777.018 106.441 776.834C106.091 776.647 105.804 776.396 105.58 776.08C105.356 775.761 105.191 775.403 105.083 775.008C104.979 774.609 104.927 774.2 104.927 773.779C104.927 773.375 104.982 772.976 105.093 772.583C105.203 772.187 105.372 771.829 105.599 771.507C105.826 771.184 106.114 770.928 106.464 770.738C106.813 770.545 107.227 770.448 107.706 770.448C108.114 770.448 108.457 770.51 108.736 770.632C109.016 770.755 109.249 770.915 109.436 771.111C109.623 771.304 109.784 771.51 109.919 771.727L108.98 772.261C108.836 772.046 108.666 771.859 108.47 771.7C108.273 771.537 108.019 771.456 107.706 771.456C107.39 771.456 107.123 771.526 106.905 771.668C106.691 771.809 106.519 771.994 106.39 772.224C106.261 772.454 106.168 772.706 106.109 772.979C106.054 773.252 106.026 773.519 106.026 773.779C106.026 774.074 106.059 774.361 106.123 774.64C106.188 774.916 106.286 775.164 106.418 775.385C106.553 775.603 106.726 775.776 106.937 775.905C107.152 776.034 107.408 776.098 107.706 776.098C107.948 776.098 108.161 776.046 108.345 775.942C108.532 775.834 108.68 775.69 108.787 775.509C108.894 775.325 108.948 775.118 108.948 774.888V774.723H107.835V773.724H110.048V774.598C110.048 775.141 109.945 775.6 109.739 775.974C109.534 776.348 109.253 776.632 108.897 776.825C108.545 777.015 108.147 777.11 107.706 777.11ZM111.41 777V772.298H112.441V777H111.41ZM111.921 771.617C111.752 771.617 111.608 771.557 111.489 771.438C111.369 771.318 111.309 771.174 111.309 771.005C111.309 770.833 111.367 770.688 111.484 770.568C111.604 770.445 111.749 770.384 111.921 770.384C112.099 770.384 112.246 770.444 112.363 770.563C112.482 770.683 112.542 770.83 112.542 771.005C112.542 771.177 112.482 771.323 112.363 771.442C112.243 771.559 112.096 771.617 111.921 771.617ZM115.173 777L113.453 772.298H114.515L115.546 775.206C115.571 775.276 115.595 775.35 115.62 775.426C115.644 775.503 115.666 775.581 115.684 775.661C115.706 775.581 115.727 775.505 115.748 775.431C115.773 775.354 115.799 775.279 115.827 775.206L116.843 772.298H117.902L116.181 777H115.173ZM120.715 777.11C120.27 777.11 119.887 777.008 119.564 776.802C119.242 776.597 118.995 776.31 118.824 775.942C118.652 775.571 118.566 775.138 118.566 774.644C118.566 774.132 118.655 773.693 118.833 773.328C119.011 772.96 119.261 772.678 119.583 772.482C119.905 772.286 120.282 772.187 120.715 772.187C121.086 772.187 121.423 772.267 121.727 772.427C122.034 772.586 122.277 772.832 122.458 773.163C122.639 773.491 122.73 773.91 122.73 774.419C122.73 774.499 122.728 774.594 122.725 774.704C122.722 774.812 122.713 774.92 122.698 775.031H119.592C119.61 775.27 119.667 775.479 119.762 775.657C119.86 775.834 119.991 775.974 120.153 776.075C120.316 776.173 120.508 776.222 120.728 776.222C120.943 776.222 121.133 776.187 121.299 776.117C121.465 776.043 121.623 775.926 121.773 775.767L122.371 776.397C122.178 776.609 121.942 776.781 121.662 776.913C121.386 777.044 121.07 777.11 120.715 777.11ZM119.597 774.198H121.718C121.708 773.974 121.662 773.778 121.58 773.609C121.5 773.44 121.386 773.31 121.239 773.218C121.092 773.123 120.913 773.075 120.701 773.075C120.406 773.075 120.155 773.167 119.946 773.351C119.741 773.536 119.624 773.818 119.597 774.198ZM125.227 777.11C124.712 777.11 124.307 776.971 124.013 776.692C123.718 776.413 123.571 776.034 123.571 775.555C123.571 775.242 123.646 774.971 123.796 774.741C123.947 774.508 124.158 774.328 124.431 774.203C124.704 774.074 125.023 774.009 125.388 774.009C125.603 774.009 125.807 774.031 126 774.074C126.196 774.114 126.371 774.175 126.525 774.258V773.954C126.525 773.654 126.448 773.431 126.295 773.287C126.141 773.14 125.91 773.066 125.6 773.066C125.373 773.066 125.138 773.108 124.896 773.19C124.654 773.273 124.416 773.393 124.183 773.549L123.875 772.726C124.132 772.554 124.422 772.422 124.744 772.33C125.066 772.235 125.39 772.187 125.715 772.187C126.319 772.187 126.772 772.335 127.072 772.629C127.376 772.921 127.528 773.359 127.528 773.945V777H126.525V776.604C126.359 776.767 126.164 776.893 125.94 776.982C125.716 777.067 125.479 777.11 125.227 777.11ZM125.439 776.232C125.638 776.232 125.831 776.189 126.019 776.103C126.209 776.017 126.377 775.894 126.525 775.735V775.095C126.387 775.019 126.23 774.96 126.055 774.92C125.884 774.877 125.715 774.856 125.549 774.856C125.243 774.856 125.002 774.919 124.827 775.045C124.652 775.167 124.565 775.338 124.565 775.555C124.565 775.764 124.641 775.93 124.795 776.052C124.948 776.172 125.163 776.232 125.439 776.232ZM129.686 777L128.416 772.298H129.437L130.054 774.916C130.075 775.002 130.095 775.098 130.114 775.206C130.135 775.31 130.154 775.408 130.169 775.5C130.187 775.408 130.209 775.308 130.233 775.201C130.261 775.094 130.285 774.999 130.307 774.916L131.02 772.298H131.913L132.621 774.916C132.646 775.005 132.67 775.103 132.695 775.21C132.722 775.318 132.747 775.419 132.768 775.514C132.784 775.419 132.801 775.318 132.819 775.21C132.84 775.103 132.862 775.005 132.883 774.916L133.505 772.298H134.526L133.252 777H132.336L131.637 774.502C131.612 774.416 131.583 774.307 131.549 774.175C131.519 774.04 131.491 773.922 131.466 773.821C131.445 773.922 131.417 774.04 131.384 774.175C131.35 774.307 131.321 774.416 131.296 774.502L130.606 777H129.686ZM136.891 777.11C136.376 777.11 135.971 776.971 135.677 776.692C135.382 776.413 135.235 776.034 135.235 775.555C135.235 775.242 135.31 774.971 135.46 774.741C135.611 774.508 135.822 774.328 136.095 774.203C136.368 774.074 136.687 774.009 137.052 774.009C137.267 774.009 137.471 774.031 137.664 774.074C137.86 774.114 138.035 774.175 138.189 774.258V773.954C138.189 773.654 138.112 773.431 137.959 773.287C137.805 773.14 137.574 773.066 137.264 773.066C137.037 773.066 136.802 773.108 136.56 773.19C136.318 773.273 136.08 773.393 135.847 773.549L135.539 772.726C135.796 772.554 136.086 772.422 136.408 772.33C136.73 772.235 137.054 772.187 137.379 772.187C137.983 772.187 138.436 772.335 138.736 772.629C139.04 772.921 139.192 773.359 139.192 773.945V777H138.189V776.604C138.023 776.767 137.828 776.893 137.604 776.982C137.38 777.067 137.143 777.11 136.891 777.11ZM137.103 776.232C137.302 776.232 137.495 776.189 137.683 776.103C137.873 776.017 138.041 775.894 138.189 775.735V775.095C138.051 775.019 137.894 774.96 137.719 774.92C137.548 774.877 137.379 774.856 137.213 774.856C136.907 774.856 136.666 774.919 136.491 775.045C136.316 775.167 136.229 775.338 136.229 775.555C136.229 775.764 136.305 775.93 136.459 776.052C136.612 776.172 136.827 776.232 137.103 776.232ZM141.064 778.785L141.777 776.908L140.025 772.298H141.078L142.15 775.196C142.181 775.27 142.208 775.344 142.233 775.417C142.257 775.491 142.279 775.568 142.297 775.647C142.322 775.568 142.346 775.491 142.371 775.417C142.396 775.344 142.42 775.27 142.445 775.196L143.526 772.298H144.589L142.123 778.785H141.064ZM147.922 777V770.559H150.724C151.252 770.559 151.669 770.651 151.976 770.835C152.283 771.019 152.5 771.26 152.629 771.557C152.761 771.852 152.827 772.164 152.827 772.496C152.827 772.744 152.779 772.993 152.684 773.241C152.589 773.49 152.441 773.712 152.238 773.908C152.039 774.101 151.783 774.241 151.47 774.327L152.776 777H151.585L150.329 774.451H148.985V777H147.922ZM148.985 773.457H150.743C150.991 773.457 151.188 773.411 151.332 773.319C151.479 773.227 151.583 773.109 151.645 772.965C151.706 772.821 151.737 772.669 151.737 772.51C151.737 772.362 151.707 772.217 151.649 772.072C151.594 771.925 151.493 771.803 151.345 771.704C151.201 771.603 151 771.553 150.743 771.553H148.985V773.457ZM155.601 777.11C155.059 777.11 154.644 776.945 154.359 776.614C154.074 776.282 153.931 775.798 153.931 775.16V772.298H154.962V774.957C154.962 775.356 155.036 775.652 155.183 775.845C155.333 776.035 155.559 776.13 155.859 776.13C156.187 776.13 156.431 776.035 156.591 775.845C156.75 775.652 156.83 775.362 156.83 774.976V772.298H157.865V777H156.83V776.558C156.686 776.742 156.511 776.88 156.305 776.972C156.103 777.064 155.868 777.11 155.601 777.11ZM159.379 777V770.83L160.41 770.356V777H159.379ZM163.812 777.11C163.367 777.11 162.984 777.008 162.662 776.802C162.34 776.597 162.093 776.31 161.921 775.942C161.749 775.571 161.663 775.138 161.663 774.644C161.663 774.132 161.752 773.693 161.93 773.328C162.108 772.96 162.358 772.678 162.68 772.482C163.002 772.286 163.38 772.187 163.812 772.187C164.183 772.187 164.521 772.267 164.824 772.427C165.131 772.586 165.375 772.832 165.556 773.163C165.737 773.491 165.827 773.91 165.827 774.419C165.827 774.499 165.826 774.594 165.823 774.704C165.82 774.812 165.81 774.92 165.795 775.031H162.689C162.708 775.27 162.765 775.479 162.86 775.657C162.958 775.834 163.088 775.974 163.251 776.075C163.413 776.173 163.605 776.222 163.826 776.222C164.041 776.222 164.231 776.187 164.396 776.117C164.562 776.043 164.72 775.926 164.87 775.767L165.468 776.397C165.275 776.609 165.039 776.781 164.76 776.913C164.484 777.044 164.168 777.11 163.812 777.11ZM162.694 774.198H164.815C164.806 773.974 164.76 773.778 164.677 773.609C164.597 773.44 164.484 773.31 164.337 773.218C164.189 773.123 164.01 773.075 163.798 773.075C163.504 773.075 163.252 773.167 163.044 773.351C162.838 773.536 162.722 773.818 162.694 774.198ZM168.381 777.11C168.028 777.11 167.689 777.035 167.364 776.885C167.039 776.732 166.778 776.528 166.582 776.273L167.272 775.684C167.435 775.853 167.617 775.986 167.82 776.084C168.022 776.183 168.22 776.232 168.413 776.232C168.658 776.232 168.849 776.189 168.984 776.103C169.119 776.014 169.186 775.89 169.186 775.73C169.186 775.632 169.155 775.543 169.094 775.463C169.033 775.38 168.925 775.299 168.772 775.219C168.619 775.14 168.407 775.049 168.137 774.948C167.609 774.755 167.235 774.546 167.014 774.322C166.794 774.095 166.683 773.812 166.683 773.471C166.683 773.088 166.836 772.778 167.143 772.542C167.45 772.306 167.849 772.187 168.339 772.187C168.674 772.187 168.982 772.252 169.264 772.381C169.549 772.506 169.795 772.689 170 772.928L169.315 773.494C169.036 773.209 168.704 773.066 168.321 773.066C168.116 773.066 167.951 773.106 167.829 773.186C167.706 773.263 167.645 773.365 167.645 773.494C167.645 773.623 167.715 773.738 167.856 773.839C168.001 773.937 168.264 774.052 168.648 774.184C168.997 774.301 169.283 774.431 169.503 774.575C169.727 774.719 169.89 774.885 169.991 775.072C170.095 775.259 170.148 775.476 170.148 775.721C170.148 776.153 169.99 776.494 169.674 776.742C169.361 776.988 168.93 777.11 168.381 777.11ZM175.305 777.11C174.922 777.11 174.586 777.035 174.298 776.885C174.012 776.735 173.79 776.523 173.63 776.25C173.474 775.977 173.396 775.657 173.396 775.288C173.396 774.976 173.459 774.703 173.584 774.47C173.71 774.233 173.88 774.028 174.095 773.853C174.313 773.678 174.554 773.519 174.817 773.375C174.575 773.086 174.403 772.832 174.302 772.611C174.201 772.39 174.15 772.155 174.15 771.907C174.15 771.6 174.221 771.338 174.362 771.12C174.503 770.902 174.693 770.737 174.932 770.623C175.172 770.507 175.439 770.448 175.733 770.448C176.04 770.448 176.311 770.508 176.547 770.628C176.787 770.747 176.974 770.916 177.109 771.134C177.244 771.352 177.311 771.606 177.311 771.898C177.311 772.278 177.205 772.595 176.994 772.85C176.785 773.105 176.524 773.333 176.211 773.536L177.127 774.631C177.176 774.499 177.211 774.365 177.233 774.23C177.257 774.095 177.273 773.974 177.279 773.867H178.282C178.276 774.134 178.236 774.411 178.162 774.7C178.089 774.988 177.98 775.247 177.836 775.477L179.087 777H177.776L177.214 776.314C176.969 776.572 176.684 776.77 176.359 776.908C176.037 777.043 175.685 777.11 175.305 777.11ZM175.434 776.13C175.652 776.13 175.86 776.083 176.06 775.988C176.262 775.89 176.449 775.756 176.621 775.588L175.37 774.065C175.063 774.243 174.831 774.425 174.675 774.612C174.521 774.796 174.445 775.008 174.445 775.247C174.445 775.508 174.534 775.721 174.712 775.887C174.893 776.049 175.133 776.13 175.434 776.13ZM175.664 772.873C175.876 772.75 176.041 772.612 176.161 772.459C176.281 772.302 176.34 772.128 176.34 771.934C176.34 771.717 176.279 771.551 176.156 771.438C176.034 771.321 175.889 771.263 175.724 771.263C175.552 771.263 175.408 771.318 175.291 771.428C175.178 771.536 175.121 771.678 175.121 771.856C175.121 772.013 175.169 772.172 175.264 772.335C175.362 772.497 175.495 772.677 175.664 772.873ZM183.666 777V771.576H181.849V770.559H186.546V771.576H184.729V777H183.666ZM188.757 777.11C188.313 777.11 187.929 777.008 187.607 776.802C187.285 776.597 187.038 776.31 186.866 775.942C186.695 775.571 186.609 775.138 186.609 774.644C186.609 774.132 186.698 773.693 186.876 773.328C187.054 772.96 187.304 772.678 187.626 772.482C187.948 772.286 188.325 772.187 188.757 772.187C189.129 772.187 189.466 772.267 189.77 772.427C190.076 772.586 190.32 772.832 190.501 773.163C190.682 773.491 190.773 773.91 190.773 774.419C190.773 774.499 190.771 774.594 190.768 774.704C190.765 774.812 190.756 774.92 190.74 775.031H187.635C187.653 775.27 187.71 775.479 187.805 775.657C187.903 775.834 188.034 775.974 188.196 776.075C188.359 776.173 188.55 776.222 188.771 776.222C188.986 776.222 189.176 776.187 189.342 776.117C189.507 776.043 189.665 775.926 189.816 775.767L190.414 776.397C190.221 776.609 189.984 776.781 189.705 776.913C189.429 777.044 189.113 777.11 188.757 777.11ZM187.639 774.198H189.76C189.751 773.974 189.705 773.778 189.622 773.609C189.543 773.44 189.429 773.31 189.282 773.218C189.135 773.123 188.955 773.075 188.744 773.075C188.449 773.075 188.198 773.167 187.989 773.351C187.784 773.536 187.667 773.818 187.639 774.198ZM191.98 777V772.298H193.01V772.841C193.102 772.638 193.24 772.479 193.424 772.362C193.611 772.246 193.817 772.187 194.041 772.187C194.357 772.187 194.624 772.29 194.841 772.496L194.699 773.448C194.582 773.356 194.466 773.29 194.349 773.25C194.232 773.21 194.104 773.19 193.963 773.19C193.766 773.19 193.598 773.24 193.456 773.338C193.315 773.436 193.205 773.575 193.125 773.756C193.049 773.937 193.01 774.152 193.01 774.4V777H191.98ZM195.637 777V772.298H196.668V772.735C196.815 772.551 196.987 772.414 197.183 772.326C197.379 772.233 197.6 772.187 197.845 772.187C198.121 772.187 198.364 772.246 198.572 772.362C198.781 772.476 198.942 772.643 199.055 772.864C199.206 772.646 199.402 772.479 199.644 772.362C199.89 772.246 200.163 772.187 200.463 772.187C201.015 772.187 201.44 772.344 201.738 772.657C202.035 772.967 202.184 773.413 202.184 773.996V777H201.149V774.336C201.149 773.943 201.078 773.651 200.937 773.457C200.799 773.261 200.591 773.163 200.311 773.163C200.121 773.163 199.959 773.207 199.824 773.296C199.692 773.385 199.592 773.517 199.525 773.692C199.457 773.867 199.423 774.08 199.423 774.331V777H198.388V774.336C198.388 773.937 198.319 773.643 198.181 773.453C198.046 773.259 197.838 773.163 197.555 773.163C197.264 773.163 197.043 773.259 196.893 773.453C196.743 773.646 196.668 773.933 196.668 774.313V777H195.637ZM205.089 777.11C204.736 777.11 204.397 777.035 204.072 776.885C203.747 776.732 203.486 776.528 203.29 776.273L203.98 775.684C204.143 775.853 204.325 775.986 204.528 776.084C204.73 776.183 204.928 776.232 205.121 776.232C205.367 776.232 205.557 776.189 205.692 776.103C205.827 776.014 205.894 775.89 205.894 775.73C205.894 775.632 205.864 775.543 205.802 775.463C205.741 775.38 205.634 775.299 205.48 775.219C205.327 775.14 205.115 775.049 204.845 774.948C204.318 774.755 203.943 774.546 203.723 774.322C203.502 774.095 203.391 773.812 203.391 773.471C203.391 773.088 203.545 772.778 203.851 772.542C204.158 772.306 204.557 772.187 205.048 772.187C205.382 772.187 205.69 772.252 205.972 772.381C206.258 772.506 206.503 772.689 206.709 772.928L206.023 773.494C205.744 773.209 205.413 773.066 205.029 773.066C204.824 773.066 204.66 773.106 204.537 773.186C204.414 773.263 204.353 773.365 204.353 773.494C204.353 773.623 204.423 773.738 204.565 773.839C204.709 773.937 204.973 774.052 205.356 774.184C205.706 774.301 205.991 774.431 206.212 774.575C206.436 774.719 206.598 774.885 206.699 775.072C206.804 775.259 206.856 775.476 206.856 775.721C206.856 776.153 206.698 776.494 206.382 776.742C206.069 776.988 205.638 777.11 205.089 777.11ZM214.923 780.478V767.228H215.954V780.478H214.923ZM225.64 777V771.576H223.823V770.559H228.52V771.576H226.703V777H225.64ZM228.975 777V772.298H230.006V772.841C230.098 772.638 230.236 772.479 230.42 772.362C230.607 772.246 230.813 772.187 231.037 772.187C231.352 772.187 231.619 772.29 231.837 772.496L231.694 773.448C231.578 773.356 231.461 773.29 231.345 773.25C231.228 773.21 231.099 773.19 230.958 773.19C230.762 773.19 230.593 773.24 230.452 773.338C230.311 773.436 230.201 773.575 230.121 773.756C230.044 773.937 230.006 774.152 230.006 774.4V777H228.975ZM233.379 778.785L234.092 776.908L232.339 772.298H233.392L234.464 775.196C234.495 775.27 234.523 775.344 234.547 775.417C234.572 775.491 234.593 775.568 234.612 775.647C234.636 775.568 234.661 775.491 234.685 775.417C234.71 775.344 234.734 775.27 234.759 775.196L235.84 772.298H236.903L234.437 778.785H233.379ZM314.669 777V770.559H318.814V771.562H315.731V773.172H317.728V774.175H315.731V777H314.669ZM321.001 777.11C320.344 777.11 319.827 776.891 319.45 776.452C319.073 776.014 318.884 775.414 318.884 774.654C318.884 774.147 318.97 773.71 319.142 773.342C319.314 772.974 319.558 772.691 319.873 772.491C320.192 772.289 320.568 772.187 321.001 772.187C321.436 772.187 321.812 772.287 322.128 772.487C322.444 772.686 322.688 772.97 322.859 773.338C323.031 773.706 323.117 774.143 323.117 774.649C323.117 775.155 323.031 775.592 322.859 775.96C322.688 776.328 322.444 776.612 322.128 776.811C321.812 777.011 321.436 777.11 321.001 777.11ZM321.001 776.13C321.341 776.13 321.606 776 321.797 775.739C321.987 775.479 322.082 775.115 322.082 774.649C322.082 774.18 321.985 773.815 321.792 773.554C321.602 773.293 321.338 773.163 321.001 773.163C320.663 773.163 320.398 773.295 320.205 773.559C320.015 773.819 319.919 774.184 319.919 774.654C319.919 775.117 320.015 775.479 320.205 775.739C320.398 776 320.663 776.13 321.001 776.13ZM324.255 777V772.298H325.286V772.841C325.378 772.638 325.516 772.479 325.7 772.362C325.887 772.246 326.092 772.187 326.316 772.187C326.632 772.187 326.899 772.29 327.117 772.496L326.974 773.448C326.858 773.356 326.741 773.29 326.625 773.25C326.508 773.21 326.379 773.19 326.238 773.19C326.042 773.19 325.873 773.24 325.732 773.338C325.591 773.436 325.48 773.575 325.401 773.756C325.324 773.937 325.286 774.152 325.286 774.4V777H324.255ZM331.711 777V774.479L329.406 770.559H330.602L332.236 773.393L333.874 770.559H335.061L332.765 774.47V777H331.711ZM337.059 777.11C336.402 777.11 335.886 776.891 335.508 776.452C335.131 776.014 334.942 775.414 334.942 774.654C334.942 774.147 335.028 773.71 335.2 773.342C335.372 772.974 335.616 772.691 335.932 772.491C336.251 772.289 336.626 772.187 337.059 772.187C337.494 772.187 337.87 772.287 338.186 772.487C338.502 772.686 338.746 772.97 338.918 773.338C339.089 773.706 339.175 774.143 339.175 774.649C339.175 775.155 339.089 775.592 338.918 775.96C338.746 776.328 338.502 776.612 338.186 776.811C337.87 777.011 337.494 777.11 337.059 777.11ZM337.059 776.13C337.399 776.13 337.665 776 337.855 775.739C338.045 775.479 338.14 775.115 338.14 774.649C338.14 774.18 338.043 773.815 337.85 773.554C337.66 773.293 337.396 773.163 337.059 773.163C336.721 773.163 336.456 773.295 336.263 773.559C336.073 773.819 335.978 774.184 335.978 774.654C335.978 775.117 336.073 775.479 336.263 775.739C336.456 776 336.721 776.13 337.059 776.13ZM342.009 777.11C341.466 777.11 341.052 776.945 340.767 776.614C340.482 776.282 340.339 775.798 340.339 775.16V772.298H341.37V774.957C341.37 775.356 341.443 775.652 341.591 775.845C341.741 776.035 341.966 776.13 342.267 776.13C342.595 776.13 342.839 776.035 342.998 775.845C343.158 775.652 343.238 775.362 343.238 774.976V772.298H344.273V777H343.238V776.558C343.093 776.742 342.919 776.88 342.713 776.972C342.511 777.064 342.276 777.11 342.009 777.11ZM345.768 777V772.298H346.798V772.841C346.89 772.638 347.028 772.479 347.212 772.362C347.4 772.246 347.605 772.187 347.829 772.187C348.145 772.187 348.412 772.29 348.63 772.496L348.487 773.448C348.37 773.356 348.254 773.29 348.137 773.25C348.021 773.21 347.892 773.19 347.751 773.19C347.554 773.19 347.386 773.24 347.245 773.338C347.104 773.436 346.993 773.575 346.913 773.756C346.837 773.937 346.798 774.152 346.798 774.4V777H345.768ZM350.907 777.11C350.554 777.11 350.215 777.035 349.89 776.885C349.565 776.732 349.304 776.528 349.108 776.273L349.798 775.684C349.96 775.853 350.143 775.986 350.345 776.084C350.548 776.183 350.746 776.232 350.939 776.232C351.184 776.232 351.374 776.189 351.509 776.103C351.644 776.014 351.712 775.89 351.712 775.73C351.712 775.632 351.681 775.543 351.62 775.463C351.558 775.38 351.451 775.299 351.298 775.219C351.144 775.14 350.933 775.049 350.663 774.948C350.135 774.755 349.761 774.546 349.54 774.322C349.319 774.095 349.209 773.812 349.209 773.471C349.209 773.088 349.362 772.778 349.669 772.542C349.976 772.306 350.374 772.187 350.865 772.187C351.2 772.187 351.508 772.252 351.79 772.381C352.075 772.506 352.321 772.689 352.526 772.928L351.841 773.494C351.561 773.209 351.23 773.066 350.847 773.066C350.641 773.066 350.477 773.106 350.354 773.186C350.232 773.263 350.17 773.365 350.17 773.494C350.17 773.623 350.241 773.738 350.382 773.839C350.526 773.937 350.79 774.052 351.173 774.184C351.523 774.301 351.808 774.431 352.029 774.575C352.253 774.719 352.416 774.885 352.517 775.072C352.621 775.259 352.673 775.476 352.673 775.721C352.673 776.153 352.515 776.494 352.199 776.742C351.887 776.988 351.456 777.11 350.907 777.11ZM355.683 777.11C355.239 777.11 354.855 777.008 354.533 776.802C354.211 776.597 353.964 776.31 353.792 775.942C353.621 775.571 353.535 775.138 353.535 774.644C353.535 774.132 353.624 773.693 353.802 773.328C353.979 772.96 354.229 772.678 354.552 772.482C354.874 772.286 355.251 772.187 355.683 772.187C356.054 772.187 356.392 772.267 356.696 772.427C357.002 772.586 357.246 772.832 357.427 773.163C357.608 773.491 357.699 773.91 357.699 774.419C357.699 774.499 357.697 774.594 357.694 774.704C357.691 774.812 357.682 774.92 357.666 775.031H354.561C354.579 775.27 354.636 775.479 354.731 775.657C354.829 775.834 354.959 775.974 355.122 776.075C355.285 776.173 355.476 776.222 355.697 776.222C355.912 776.222 356.102 776.187 356.268 776.117C356.433 776.043 356.591 775.926 356.742 775.767L357.34 776.397C357.146 776.609 356.91 776.781 356.631 776.913C356.355 777.044 356.039 777.11 355.683 777.11ZM354.565 774.198H356.686C356.677 773.974 356.631 773.778 356.548 773.609C356.469 773.44 356.355 773.31 356.208 773.218C356.061 773.123 355.881 773.075 355.67 773.075C355.375 773.075 355.124 773.167 354.915 773.351C354.709 773.536 354.593 773.818 354.565 774.198ZM358.907 777V770.83L359.937 770.356V777H358.907ZM361.706 777V773.204H361.025V772.298H361.706V771.553C361.706 771.197 361.801 770.924 361.991 770.734C362.182 770.543 362.455 770.448 362.81 770.448C362.998 770.448 363.169 770.467 363.326 770.504C363.485 770.54 363.639 770.599 363.786 770.678V771.525C363.657 771.47 363.537 771.428 363.427 771.401C363.32 771.373 363.215 771.359 363.114 771.359C362.985 771.359 362.89 771.39 362.829 771.451C362.767 771.513 362.737 771.612 362.737 771.75V772.298H363.786V773.204H362.737V777H361.706ZM365.033 775.224L364.771 772.5V770.448H365.806V772.5L365.539 775.224H365.033ZM365.282 777.115C365.07 777.115 364.895 777.044 364.757 776.903C364.622 776.759 364.555 776.589 364.555 776.393C364.555 776.196 364.622 776.026 364.757 775.882C364.895 775.738 365.07 775.666 365.282 775.666C365.493 775.666 365.668 775.738 365.806 775.882C365.947 776.026 366.018 776.196 366.018 776.393C366.018 776.589 365.947 776.759 365.806 776.903C365.668 777.044 365.493 777.115 365.282 777.115Z" fill="black"/>
<path d="M241.168 777.142V770.59H244.098C244.528 770.59 244.92 770.686 245.272 770.875C245.625 771.065 245.905 771.329 246.115 771.666C246.324 772.002 246.428 772.396 246.428 772.845C246.428 773.294 246.325 773.667 246.119 774C245.913 774.334 245.641 774.598 245.305 774.791L245.904 775.84C245.93 775.878 245.96 775.907 245.998 775.929C246.036 775.951 246.079 775.962 246.129 775.962H247.607V777.141H245.923C245.661 777.141 245.423 777.075 245.207 776.944C244.992 776.812 244.821 776.641 244.697 776.43L243.958 775.1H242.508V777.141H241.169L241.168 777.142ZM242.507 773.922H243.939C244.151 773.922 244.345 773.88 244.519 773.795C244.694 773.711 244.833 773.588 244.936 773.425C245.039 773.263 245.09 773.07 245.09 772.845C245.09 772.62 245.038 772.427 244.932 772.264C244.825 772.102 244.687 771.979 244.515 771.894C244.344 771.81 244.151 771.768 243.94 771.768H242.508V773.921L242.507 773.922Z" fill="#1501FE"/>
<path d="M246.859 777.142L248.993 771.32C249.099 771.039 249.265 770.829 249.494 770.688C249.722 770.548 249.978 770.478 250.265 770.478C250.553 770.478 250.811 770.545 251.043 770.678C251.273 770.813 251.439 771.023 251.539 771.31L253.682 777.142H252.213L251.773 775.822H248.723L248.264 777.142H246.86H246.859ZM249.124 774.643H251.38L250.435 771.77C250.422 771.727 250.402 771.695 250.374 771.676C250.345 771.657 250.313 771.648 250.276 771.648C250.239 771.648 250.208 771.658 250.182 771.681C250.157 771.703 250.138 771.732 250.127 771.77L249.126 774.643H249.124Z" fill="#1501FE"/>
<path d="M254.084 777.142V772.5C254.084 772.144 254.169 771.823 254.341 771.536C254.513 771.248 254.744 771.019 255.034 770.848C255.324 770.676 255.644 770.59 255.993 770.59H258.361V771.769H256.144C255.944 771.769 255.773 771.84 255.634 771.985C255.494 772.129 255.423 772.3 255.423 772.5V773.558H258.044V774.737H255.423V777.142H254.085H254.084Z" fill="#1501FE"/>
<path d="M259.231 777.142V772.5C259.231 772.144 259.317 771.823 259.489 771.536C259.66 771.248 259.892 771.019 260.182 770.848C260.472 770.676 260.792 770.59 261.141 770.59H264.561V771.769H261.291C261.092 771.769 260.921 771.84 260.781 771.985C260.642 772.129 260.571 772.3 260.571 772.5V773.558H263.192V774.737H260.571V777.142H259.232H259.231Z" fill="#1501FE"/>
<path d="M266.325 777.142C265.938 777.142 265.599 777.052 265.305 776.875C265.012 776.697 264.785 776.459 264.622 776.164C264.46 775.867 264.379 775.541 264.379 775.186V770.59H265.717V775.344C265.717 775.513 265.776 775.658 265.895 775.78C266.014 775.902 266.157 775.963 266.325 775.963H270.685V777.142H266.325Z" fill="#1501FE"/>
<path d="M270.575 777.142C270.213 777.142 269.884 777.055 269.587 776.88C269.291 776.705 269.055 776.47 268.881 776.173C268.706 775.877 268.619 775.548 268.619 775.186C268.619 774.924 268.674 774.677 268.787 774.447C268.899 774.216 269.052 774.013 269.245 773.838C269.052 773.663 268.899 773.46 268.787 773.229C268.674 772.999 268.619 772.755 268.619 772.499C268.619 772.144 268.705 771.822 268.876 771.535C269.048 771.248 269.279 771.018 269.569 770.847C269.86 770.676 270.179 770.589 270.528 770.589H273.224V771.768H270.678C270.546 771.768 270.426 771.801 270.317 771.866C270.208 771.931 270.12 772.018 270.055 772.128C269.99 772.237 269.957 772.36 269.957 772.498C269.957 772.636 269.99 772.749 270.055 772.859C270.12 772.968 270.208 773.055 270.317 773.121C270.426 773.186 270.546 773.218 270.678 773.218H272.905V774.397H270.733C270.589 774.397 270.459 774.433 270.34 774.504C270.221 774.576 270.128 774.672 270.059 774.789C269.991 774.908 269.956 775.039 269.956 775.183C269.956 775.327 269.991 775.457 270.059 775.576C270.128 775.695 270.221 775.788 270.34 775.857C270.459 775.925 270.589 775.96 270.733 775.96H273.223V777.139H270.574L270.575 777.142Z" fill="#1501FE"/>
<path d="M278.772 777.142C278.385 777.142 278.046 777.052 277.752 776.875C277.459 776.697 277.232 776.459 277.069 776.164C276.907 775.867 276.826 775.541 276.826 775.186V770.59H278.164V775.344C278.164 775.513 278.223 775.658 278.342 775.78C278.461 775.902 278.604 775.963 278.772 775.963H283.658V777.142H278.772Z" fill="#1501FE"/>
<path d="M283.021 777.142C282.659 777.142 282.33 777.055 282.033 776.88C281.737 776.705 281.501 776.47 281.327 776.173C281.152 775.877 281.065 775.548 281.065 775.186C281.065 774.924 281.121 774.677 281.233 774.447C281.346 774.216 281.498 774.013 281.692 773.838C281.498 773.663 281.346 773.46 281.233 773.229C281.121 772.999 281.065 772.755 281.065 772.499C281.065 772.144 281.151 771.822 281.323 771.535C281.494 771.248 281.725 771.018 282.016 770.847C282.306 770.676 282.625 770.589 282.975 770.589H285.67V771.768H283.124C282.992 771.768 282.873 771.801 282.763 771.866C282.654 771.931 282.567 772.018 282.501 772.128C282.436 772.237 282.404 772.36 282.404 772.498C282.404 772.636 282.436 772.749 282.501 772.859C282.567 772.968 282.654 773.055 282.763 773.121C282.873 773.186 282.992 773.218 283.124 773.218H285.351V774.397H283.18C283.036 774.397 282.905 774.433 282.786 774.504C282.668 774.576 282.574 774.672 282.506 774.789C282.437 774.908 282.403 775.039 282.403 775.183C282.403 775.327 282.437 775.457 282.506 775.576C282.574 775.695 282.668 775.788 282.786 775.857C282.905 775.925 283.036 775.96 283.18 775.96H286.72V777.139H283.02L283.021 777.142Z" fill="#1501FE"/>
<path d="M286.044 777.142L288.177 771.32C288.284 771.039 288.45 770.829 288.678 770.688C288.906 770.548 289.163 770.478 289.45 770.478C289.737 770.478 289.996 770.545 290.227 770.678C290.457 770.813 290.623 771.023 290.723 771.31L292.867 777.142H291.397L290.958 775.822H287.907L287.449 777.142H286.045H286.044ZM288.309 774.643H290.565L289.619 771.77C289.607 771.727 289.587 771.695 289.558 771.676C289.53 771.657 289.497 771.648 289.46 771.648C289.424 771.648 289.392 771.658 289.367 771.681C289.342 771.703 289.323 771.732 289.311 771.77L288.31 774.643H288.309Z" fill="#1501FE"/>
<path d="M293.382 777.142V770.59H295.59C296.288 770.59 296.894 770.73 297.406 771.011C297.917 771.292 298.316 771.679 298.6 772.172C298.884 772.665 299.026 773.23 299.026 773.866C299.026 774.502 298.884 775.067 298.6 775.56C298.316 776.053 297.918 776.44 297.406 776.721C296.894 777.002 296.29 777.142 295.59 777.142H293.382ZM294.721 775.963H295.591C295.997 775.963 296.357 775.879 296.672 775.71C296.988 775.542 297.235 775.3 297.417 774.985C297.598 774.669 297.688 774.297 297.688 773.866C297.688 773.435 297.598 773.055 297.417 772.743C297.236 772.43 296.988 772.191 296.672 772.022C296.357 771.854 295.997 771.77 295.591 771.77H294.721V775.963Z" fill="#1501FE"/>
<path d="M301.636 777.142C301.274 777.142 300.945 777.055 300.649 776.88C300.352 776.705 300.116 776.47 299.942 776.173C299.767 775.877 299.68 775.548 299.68 775.186C299.68 774.924 299.736 774.677 299.848 774.447C299.961 774.216 300.113 774.013 300.307 773.838C300.113 773.663 299.961 773.46 299.848 773.229C299.736 772.999 299.68 772.755 299.68 772.499C299.68 772.144 299.766 771.822 299.938 771.535C300.109 771.248 300.34 771.018 300.631 770.847C300.921 770.676 301.241 770.589 301.59 770.589H304.285V771.768H301.739C301.608 771.768 301.488 771.801 301.378 771.866C301.269 771.931 301.182 772.018 301.117 772.128C301.051 772.237 301.019 772.36 301.019 772.498C301.019 772.636 301.051 772.749 301.117 772.859C301.182 772.968 301.269 773.055 301.378 773.121C301.488 773.186 301.608 773.218 301.739 773.218H303.966V774.397H301.795C301.651 774.397 301.52 774.433 301.402 774.504C301.283 774.576 301.189 774.672 301.121 774.789C301.052 774.908 301.018 775.039 301.018 775.183C301.018 775.327 301.052 775.457 301.121 775.576C301.189 775.695 301.283 775.788 301.402 775.857C301.52 775.925 301.651 775.96 301.795 775.96H305.756V777.139H301.635L301.636 777.142Z" fill="#1501FE"/>
<path d="M305.314 777.142V770.59H308.244C308.674 770.59 309.066 770.686 309.419 770.875C309.771 771.065 310.052 771.329 310.261 771.666C310.47 772.002 310.574 772.396 310.574 772.845C310.574 773.294 310.471 773.667 310.265 774C310.059 774.334 309.788 774.598 309.451 774.791L310.051 775.84C310.076 775.878 310.106 775.907 310.144 775.929C310.182 775.951 310.225 775.962 310.276 775.962H310.912V777.141H310.07C309.808 777.141 309.569 777.075 309.354 776.944C309.138 776.812 308.968 776.641 308.843 776.43L308.104 775.1H306.654V777.141H305.315L305.314 777.142ZM306.653 773.922H308.085C308.298 773.922 308.491 773.88 308.666 773.795C308.84 773.711 308.979 773.588 309.082 773.425C309.185 773.263 309.237 773.07 309.237 772.845C309.237 772.62 309.184 772.427 309.078 772.264C308.972 772.102 308.833 771.979 308.662 771.894C308.49 771.81 308.298 771.768 308.086 771.768H306.654V773.921L306.653 773.922Z" fill="#1501FE"/>
</g>
</g>
<defs>
<clipPath id="clip0_1626_710">
<rect width="472" height="792" fill="white"/>
</clipPath>
</defs>
</svg>
