<svg width="22" height="14" viewBox="0 0 22 14" fill="none" xmlns="http://www.w3.org/2000/svg">
<path d="M14.5064 11.4429L18.5628 11.3975C19.4564 11.456 19.8689 11.1312 19.8437 10.2245L19.8871 4.76006C19.88 3.79687 19.287 3.78074 18.8624 3.74241L12.2129 3.58306C11.6168 3.58104 10.8352 3.28754 10.3954 2.88411L10.1362 2.65315C9.53713 2.10247 8.89568 1.61533 8.08176 1.6123L3.43526 1.67383C2.56486 1.64155 1.94157 1.75451 1.93652 2.79839L1.98897 7.99556C2.02931 9.02431 2.4751 9.38336 3.34853 9.35613L9.53612 9.59718C10.2774 9.59818 10.6909 9.71921 11.4282 10.1115L12.6062 10.8962C13.3132 11.34 13.9638 11.4439 14.5074 11.4449L14.5064 11.4429Z" fill="#1501FE"/>
<path d="M22 3.34846C21.9294 3.35754 21.8568 3.36056 21.7822 3.35653C21.1094 3.31921 20.5941 2.74433 20.6304 2.07161C20.6314 2.05043 20.6384 2.00101 20.6404 1.98084L12.7484 1.97781C11.9586 1.97479 11.1982 1.67625 10.6162 1.1417C9.8235 0.412506 8.78669 0.00605144 7.70953 0.00201714L1.31921 0C1.33031 0.0776601 1.33132 0.132123 1.32627 0.212809C1.31316 0.449823 1.23248 0.665658 1.1054 0.846193C1.07615 0.891578 1.04286 0.93293 1.00756 0.969239C1.00555 0.971256 1.00353 0.974281 1.00151 0.976298C0.995462 0.98235 0.98941 0.988401 0.983359 0.994453C0.746344 1.23954 0.408472 1.38477 0.0403429 1.3646C0.0272315 1.3646 0.01412 1.36157 0 1.36056L0.00302574 9.61876C0.075643 9.60968 0.150277 9.60565 0.22592 9.60968C0.898639 9.647 1.41402 10.2219 1.37771 10.8946C1.37468 10.943 1.36762 11.0035 1.35956 11.0499H9.06102C10.0424 11.053 10.9934 11.3888 11.759 12.003L12.1503 12.3177C12.711 12.7685 13.41 13.0146 14.1291 13.0166H20.6717C20.6495 12.9148 20.6455 12.8391 20.6515 12.7292C20.6889 12.0565 21.2637 11.5411 21.9365 11.5774C21.9506 11.5774 21.9647 11.5804 21.9778 11.5814C21.9829 11.5814 21.9859 11.5814 21.9859 11.5814L21.997 3.35048L22 3.34846ZM18.9481 11.7489L14.6878 11.6914C14.117 11.6904 13.4342 11.5814 12.6919 11.1145L11.4544 10.2905C10.6798 9.87897 10.2451 9.75189 9.46747 9.75088L2.96823 9.70953C2.05043 9.73878 1.58346 9.36157 1.54009 8.28038L1.48563 2.50429C1.49168 1.40797 2.14523 1.28896 3.06001 1.32325L7.9405 1.3646C8.79476 1.36863 9.46949 1.87998 10.0978 2.45789L10.3701 2.70096C10.8311 3.12456 11.652 3.43318 12.2784 3.4352L19.2627 3.39082C19.7095 3.43116 20.3318 3.44831 20.3399 4.4589L20.2945 10.5164C20.3207 11.4695 19.888 11.8104 18.9491 11.7489H18.9481Z" fill="#1501FE"/>
</svg>
