<svg width="70" height="8" viewBox="0 0 70 8" fill="none" xmlns="http://www.w3.org/2000/svg">
<path d="M0.167969 7.14131V0.589844H3.09772C3.52783 0.589844 3.92008 0.685539 4.27236 0.874827C4.62465 1.06517 4.90542 1.32912 5.11469 1.66563C5.32396 2.00214 5.42807 2.39544 5.42807 2.84447C5.42807 3.2935 5.32501 3.66682 5.1189 4.00018C4.91279 4.33354 4.64147 4.59749 4.30496 4.79098L4.90437 5.83943C4.92961 5.87728 4.96011 5.90673 4.99796 5.92881C5.03582 5.9509 5.07894 5.96141 5.12941 5.96141H6.60691V7.14025H4.9233C4.66145 7.14025 4.42274 7.07506 4.20716 6.94361C3.99158 6.81216 3.82122 6.64075 3.69714 6.42937L2.95786 5.10015H1.50771V7.14025H0.16902L0.167969 7.14131ZM1.50665 3.92131H2.93893C3.15136 3.92131 3.34485 3.87925 3.51942 3.79512C3.69398 3.71099 3.83279 3.58795 3.93585 3.42496C4.03891 3.26301 4.09043 3.06951 4.09043 2.84447C4.09043 2.61943 4.03785 2.42699 3.93164 2.26399C3.82543 2.10204 3.68662 1.97901 3.51521 1.89383C3.3438 1.8097 3.15136 1.76763 2.93998 1.76763H1.50771V3.92026L1.50665 3.92131Z" fill="#1501FE"/>
<path d="M5.85938 7.14152L7.99307 1.31987C8.09928 1.03909 8.26543 0.828773 8.49363 0.687859C8.72183 0.547996 8.97842 0.477539 9.26551 0.477539C9.55259 0.477539 9.81129 0.544842 10.0426 0.678395C10.2729 0.813 10.4391 1.02332 10.539 1.31041L12.6822 7.14152H11.2131L10.7735 5.82177H7.72281L7.26431 7.14152H5.86043H5.85938ZM8.12452 4.64292H10.3802L9.43481 1.76995C9.42219 1.72684 9.40221 1.69529 9.37382 1.67636C9.34543 1.65743 9.31283 1.64797 9.27602 1.64797C9.23922 1.64797 9.20767 1.65849 9.18243 1.68057C9.15719 1.70265 9.13826 1.7321 9.12669 1.76995L8.12557 4.64292H8.12452Z" fill="#1501FE"/>
<path d="M13.0835 7.14131V2.49955C13.0835 2.14411 13.1687 1.82232 13.3411 1.53523C13.5125 1.24814 13.7439 1.0189 14.0341 0.847485C14.3244 0.676075 14.6441 0.589844 14.9932 0.589844H17.3614V1.76869H15.1436C14.9438 1.76869 14.7734 1.84019 14.6336 1.98426C14.4937 2.12833 14.4232 2.29974 14.4232 2.49955V3.55746H17.0438V4.7363H14.4232V7.14131H13.0845H13.0835Z" fill="#1501FE"/>
<path d="M18.2314 7.14131V2.49955C18.2314 2.14411 18.3166 1.82232 18.4891 1.53523C18.6605 1.24814 18.8919 1.0189 19.1821 0.847485C19.4723 0.676075 19.792 0.589844 20.1411 0.589844H23.561V1.76869H20.2915C20.0917 1.76869 19.9214 1.84019 19.7815 1.98426C19.6416 2.12833 19.5712 2.29974 19.5712 2.49955V3.55746H22.1918V4.7363H19.5712V7.14131H18.2325H18.2314Z" fill="#1501FE"/>
<path d="M25.3254 7.14131C24.9384 7.14131 24.5988 7.05192 24.3054 6.8742C24.012 6.69648 23.7848 6.45882 23.6218 6.16332C23.4599 5.86677 23.3789 5.54077 23.3789 5.18533V0.589844H24.7176V5.34412C24.7176 5.51238 24.7765 5.6575 24.8953 5.77949C25.0141 5.90147 25.1572 5.96246 25.3254 5.96246H29.6853V7.14131H25.3254Z" fill="#1501FE"/>
<path d="M29.5746 7.14138C29.2129 7.14138 28.8837 7.0541 28.5872 6.87953C28.2906 6.70497 28.0551 6.46941 27.8805 6.17286C27.7059 5.87631 27.6187 5.54716 27.6187 5.18541C27.6187 4.92356 27.6744 4.67643 27.7869 4.44613C27.8994 4.21583 28.0519 4.01287 28.2454 3.83726C28.0519 3.66269 27.8994 3.45973 27.7869 3.22838C27.6744 2.99808 27.6187 2.75411 27.6187 2.49857C27.6187 2.14313 27.7049 1.82134 27.8763 1.53425C28.0477 1.24717 28.2791 1.01792 28.5693 0.846509C28.8595 0.675098 29.1792 0.588867 29.5284 0.588867H32.2236V1.76771H29.6777C29.5462 1.76771 29.4264 1.80031 29.317 1.86551C29.2076 1.93071 29.1203 2.01799 29.0551 2.12736C28.9899 2.23672 28.9573 2.35976 28.9573 2.49752C28.9573 2.63528 28.9899 2.74885 29.0551 2.85822C29.1203 2.96759 29.2076 3.05487 29.317 3.12007C29.4264 3.18527 29.5462 3.21787 29.6777 3.21787H31.905V4.39671H29.7334C29.5893 4.39671 29.459 4.43246 29.3401 4.50397C29.2213 4.57548 29.1277 4.67118 29.0593 4.78895C28.991 4.90778 28.9563 5.03818 28.9563 5.18225C28.9563 5.32632 28.991 5.45672 29.0593 5.57555C29.1277 5.69438 29.2213 5.78797 29.3401 5.85633C29.459 5.92468 29.5893 5.95938 29.7334 5.95938H32.2226V7.13823H29.5736L29.5746 7.14138Z" fill="#1501FE"/>
<path d="M37.7722 7.14131C37.3852 7.14131 37.0455 7.05192 36.7521 6.8742C36.4587 6.69648 36.2316 6.45882 36.0686 6.16332C35.9067 5.86677 35.8257 5.54077 35.8257 5.18533V0.589844H37.1644V5.34412C37.1644 5.51238 37.2233 5.6575 37.3421 5.77949C37.4609 5.90147 37.6039 5.96246 37.7722 5.96246H42.6579V7.14131H37.7722Z" fill="#1501FE"/>
<path d="M42.0209 7.14138C41.6592 7.14138 41.33 7.0541 41.0335 6.87953C40.7369 6.70497 40.5014 6.46941 40.3268 6.17286C40.1522 5.87631 40.0649 5.54716 40.0649 5.18541C40.0649 4.92356 40.1207 4.67643 40.2332 4.44613C40.3457 4.21583 40.4982 4.01287 40.6917 3.83726C40.4982 3.66269 40.3457 3.45973 40.2332 3.22838C40.1207 2.99808 40.0649 2.75411 40.0649 2.49857C40.0649 2.14313 40.1512 1.82134 40.3226 1.53425C40.494 1.24717 40.7253 1.01792 41.0156 0.846509C41.3058 0.675098 41.6255 0.588867 41.9746 0.588867H44.6699V1.76771H42.124C41.9925 1.76771 41.8726 1.80031 41.7633 1.86551C41.6539 1.93071 41.5666 2.01799 41.5014 2.12736C41.4362 2.23672 41.4036 2.35976 41.4036 2.49752C41.4036 2.63528 41.4362 2.74885 41.5014 2.85822C41.5666 2.96759 41.6539 3.05487 41.7633 3.12007C41.8726 3.18527 41.9925 3.21787 42.124 3.21787H44.3513V4.39671H42.1797C42.0356 4.39671 41.9052 4.43246 41.7864 4.50397C41.6676 4.57548 41.574 4.67118 41.5056 4.78895C41.4373 4.90778 41.4026 5.03818 41.4026 5.18225C41.4026 5.32632 41.4373 5.45672 41.5056 5.57555C41.574 5.69438 41.6676 5.78797 41.7864 5.85633C41.9052 5.92468 42.0356 5.95938 42.1797 5.95938H45.7204V7.13823H42.0199L42.0209 7.14138Z" fill="#1501FE"/>
<path d="M45.0439 7.14152L47.1776 1.31987C47.2838 1.03909 47.45 0.828773 47.6782 0.687859C47.9064 0.547996 48.163 0.477539 48.4501 0.477539C48.7372 0.477539 48.9959 0.544842 49.2272 0.678395C49.4575 0.813 49.6237 1.02332 49.7236 1.31041L51.8667 7.14152H50.3976L49.9581 5.82177H46.9074L46.4489 7.14152H45.045H45.0439ZM47.3091 4.64292H49.5648L48.6194 1.76995C48.6068 1.72684 48.5868 1.69529 48.5584 1.67636C48.53 1.65743 48.4974 1.64797 48.4606 1.64797C48.4238 1.64797 48.3922 1.65849 48.367 1.68057C48.3418 1.70265 48.3228 1.7321 48.3113 1.76995L47.3101 4.64292H47.3091Z" fill="#1501FE"/>
<path d="M52.3818 7.14131V0.589844H54.5902C55.2885 0.589844 55.8942 0.729706 56.4063 1.01048C56.9174 1.29126 57.3159 1.67825 57.5999 2.17145C57.8838 2.66465 58.0258 3.22936 58.0258 3.86557C58.0258 4.50179 57.8838 5.0665 57.5999 5.5597C57.3159 6.0529 56.9184 6.43989 56.4063 6.72067C55.8942 7.00144 55.2895 7.14131 54.5902 7.14131H52.3818ZM53.7205 5.96246H54.5912C54.9972 5.96246 55.3568 5.87834 55.6723 5.71008C55.9878 5.54182 56.2349 5.29996 56.4168 4.98448C56.5977 4.669 56.6881 4.29673 56.6881 3.86557C56.6881 3.43442 56.5977 3.05479 56.4168 2.74247C56.2359 2.43014 55.9878 2.19038 55.6723 2.02212C55.3568 1.85387 54.9972 1.76974 54.5912 1.76974H53.7205V5.96246Z" fill="#1501FE"/>
<path d="M60.6361 7.14138C60.2744 7.14138 59.9453 7.0541 59.6487 6.87953C59.3522 6.70497 59.1166 6.46941 58.942 6.17286C58.7675 5.87631 58.6802 5.54716 58.6802 5.18541C58.6802 4.92356 58.7359 4.67643 58.8484 4.44613C58.961 4.21583 59.1134 4.01287 59.3069 3.83726C59.1134 3.66269 58.961 3.45973 58.8484 3.22838C58.7359 2.99808 58.6802 2.75411 58.6802 2.49857C58.6802 2.14313 58.7664 1.82134 58.9378 1.53425C59.1092 1.24717 59.3406 1.01792 59.6308 0.846509C59.9211 0.675098 60.2407 0.588867 60.5899 0.588867H63.2851V1.76771H60.7392C60.6078 1.76771 60.4879 1.80031 60.3785 1.86551C60.2691 1.93071 60.1819 2.01799 60.1167 2.12736C60.0515 2.23672 60.0189 2.35976 60.0189 2.49752C60.0189 2.63528 60.0515 2.74885 60.1167 2.85822C60.1819 2.96759 60.2691 3.05487 60.3785 3.12007C60.4879 3.18527 60.6078 3.21787 60.7392 3.21787H62.9665V4.39671H60.7949C60.6509 4.39671 60.5205 4.43246 60.4016 4.50397C60.2828 4.57548 60.1892 4.67118 60.1209 4.78895C60.0525 4.90778 60.0178 5.03818 60.0178 5.18225C60.0178 5.32632 60.0525 5.45672 60.1209 5.57555C60.1892 5.69438 60.2828 5.78797 60.4016 5.85633C60.5205 5.92468 60.6509 5.95938 60.7949 5.95938H64.7563V7.13823H60.6351L60.6361 7.14138Z" fill="#1501FE"/>
<path d="M64.3145 7.14131V0.589844H67.2442C67.6743 0.589844 68.0666 0.685539 68.4188 0.874827C68.7711 1.06517 69.0519 1.32912 69.2612 1.66563C69.4704 2.00214 69.5745 2.39544 69.5745 2.84447C69.5745 3.2935 69.4715 3.66682 69.2654 4.00018C69.0593 4.33354 68.788 4.59749 68.4514 4.79098L69.0509 5.83943C69.0761 5.87728 69.1066 5.90673 69.1444 5.92881C69.1823 5.9509 69.2254 5.96141 69.2759 5.96141H69.9121V7.14025H69.0698C68.8079 7.14025 68.5692 7.07506 68.3536 6.94361C68.1381 6.81216 67.9677 6.64075 67.8436 6.42937L67.1043 5.10015H65.6542V7.14025H64.3155L64.3145 7.14131ZM65.6531 3.92131H67.0854C67.2978 3.92131 67.4913 3.87925 67.6659 3.79512C67.8405 3.71099 67.9793 3.58795 68.0823 3.42496C68.1854 3.26301 68.2369 3.06951 68.2369 2.84447C68.2369 2.61943 68.1843 2.42699 68.0781 2.26399C67.9719 2.10204 67.8331 1.97901 67.6617 1.89383C67.4903 1.8097 67.2978 1.76763 67.0865 1.76763H65.6542V3.92026L65.6531 3.92131Z" fill="#1501FE"/>
</svg>
