<?xml version="1.0" encoding="UTF-8"?>
<svg xmlns="http://www.w3.org/2000/svg" xmlns:xlink="http://www.w3.org/1999/xlink" width="20px" height="12px" viewBox="0 0 19 12" version="1.1">
<g id="surface1">
<path style=" stroke:none;fill-rule:nonzero;fill:rgb(0%,0%,0%);fill-opacity:1;" d="M 11.957031 12.027344 C 7.972656 12.027344 4 12.027344 0.0273438 12.027344 C 0.0273438 8.027344 0.0273438 4.027344 0.0273438 0.0273438 C 6.359375 0.0273438 12.691406 0.0273438 19.027344 0.0273438 C 19.027344 4.027344 19.027344 8.027344 19.027344 12.027344 C 16.675781 12.027344 14.324219 12.027344 11.957031 12.027344 M 9.527344 1.742188 C 9.492188 1.714844 9.453125 1.691406 9.421875 1.660156 C 9.089844 1.375 8.75 1.105469 8.347656 0.921875 C 7.886719 0.707031 7.40625 0.601562 6.910156 0.601562 C 5.21875 0.59375 3.527344 0.597656 1.835938 0.597656 C 1.78125 0.597656 1.730469 0.597656 1.675781 0.597656 C 1.730469 0.929688 1.640625 1.207031 1.429688 1.429688 C 1.21875 1.648438 0.953125 1.761719 0.644531 1.742188 C 0.644531 4.054688 0.644531 6.351562 0.644531 8.648438 C 1.308594 8.59375 1.847656 9.144531 1.734375 9.851562 C 1.785156 9.851562 1.839844 9.851562 1.890625 9.851562 C 3.875 9.851562 5.859375 9.855469 7.84375 9.847656 C 8.339844 9.847656 8.824219 9.890625 9.28125 10.097656 C 9.523438 10.207031 9.757812 10.332031 9.972656 10.476562 C 10.277344 10.683594 10.554688 10.925781 10.859375 11.128906 C 11.230469 11.375 11.65625 11.476562 12.09375 11.480469 C 13.835938 11.488281 15.574219 11.484375 17.316406 11.484375 C 17.363281 11.484375 17.410156 11.484375 17.464844 11.484375 C 17.40625 11.128906 17.492188 10.828125 17.714844 10.59375 C 17.929688 10.359375 18.214844 10.238281 18.542969 10.253906 C 18.542969 7.953125 18.542969 5.671875 18.542969 3.375 C 18.226562 3.414062 17.957031 3.324219 17.730469 3.09375 C 17.5 2.867188 17.398438 2.59375 17.433594 2.257812 C 17.367188 2.257812 17.316406 2.257812 17.261719 2.257812 C 15.339844 2.257812 13.417969 2.257812 11.496094 2.257812 C 11.265625 2.257812 11.03125 2.25 10.796875 2.230469 C 10.335938 2.191406 9.917969 2.03125 9.527344 1.742188 Z M 9.527344 1.742188 "/>
<path style=" stroke:none;fill-rule:nonzero;fill:rgb(8.235294%,0.392157%,99.607843%);fill-opacity:1;" d="M 9.53125 1.75 C 9.917969 2.03125 10.335938 2.191406 10.796875 2.230469 C 11.03125 2.25 11.265625 2.257812 11.496094 2.257812 C 13.417969 2.257812 15.339844 2.257812 17.261719 2.257812 C 17.316406 2.257812 17.367188 2.257812 17.433594 2.257812 C 17.398438 2.59375 17.5 2.867188 17.730469 3.09375 C 17.957031 3.324219 18.226562 3.414062 18.542969 3.375 C 18.542969 5.671875 18.542969 7.953125 18.542969 10.253906 C 18.214844 10.238281 17.929688 10.359375 17.714844 10.59375 C 17.492188 10.828125 17.40625 11.128906 17.464844 11.484375 C 17.410156 11.484375 17.363281 11.484375 17.316406 11.484375 C 15.574219 11.484375 13.835938 11.488281 12.09375 11.480469 C 11.65625 11.476562 11.230469 11.375 10.859375 11.128906 C 10.554688 10.925781 10.277344 10.683594 9.972656 10.476562 C 9.757812 10.332031 9.523438 10.207031 9.28125 10.097656 C 8.824219 9.890625 8.339844 9.847656 7.84375 9.847656 C 5.859375 9.855469 3.875 9.851562 1.890625 9.851562 C 1.839844 9.851562 1.785156 9.851562 1.734375 9.851562 C 1.847656 9.144531 1.308594 8.59375 0.644531 8.648438 C 0.644531 6.351562 0.644531 4.054688 0.644531 1.742188 C 0.953125 1.761719 1.21875 1.648438 1.429688 1.429688 C 1.640625 1.207031 1.730469 0.929688 1.675781 0.597656 C 1.730469 0.597656 1.78125 0.597656 1.835938 0.597656 C 3.527344 0.597656 5.21875 0.59375 6.910156 0.601562 C 7.40625 0.601562 7.886719 0.707031 8.347656 0.921875 C 8.75 1.105469 9.089844 1.375 9.421875 1.660156 C 9.453125 1.691406 9.492188 1.714844 9.53125 1.75 M 15.425781 10.476562 C 15.761719 10.476562 16.101562 10.472656 16.4375 10.476562 C 16.679688 10.480469 16.851562 10.351562 17.011719 10.191406 C 17.210938 9.992188 17.234375 9.722656 17.242188 9.472656 C 17.265625 8.566406 17.265625 7.660156 17.273438 6.757812 C 17.277344 5.925781 17.277344 5.097656 17.269531 4.265625 C 17.265625 4.097656 17.222656 3.917969 17.152344 3.769531 C 17.015625 3.472656 16.742188 3.351562 16.441406 3.351562 C 14.5 3.351562 12.558594 3.367188 10.617188 3.371094 C 10.410156 3.371094 10.195312 3.339844 10 3.277344 C 9.65625 3.167969 9.34375 3 9.074219 2.746094 C 8.757812 2.445312 8.433594 2.152344 8.054688 1.933594 C 7.804688 1.789062 7.542969 1.675781 7.265625 1.667969 C 6.34375 1.640625 5.417969 1.640625 4.496094 1.632812 C 3.9375 1.628906 3.378906 1.632812 2.820312 1.632812 C 2.621094 1.632812 2.425781 1.652344 2.25 1.742188 C 2.113281 1.816406 1.988281 1.898438 1.90625 2.050781 C 1.789062 2.257812 1.753906 2.476562 1.757812 2.703125 C 1.757812 3.136719 1.777344 3.570312 1.777344 4.003906 C 1.78125 5.050781 1.777344 6.097656 1.78125 7.148438 C 1.785156 7.378906 1.808594 7.613281 1.835938 7.84375 C 1.863281 8.058594 1.925781 8.265625 2.0625 8.4375 C 2.292969 8.734375 2.617188 8.808594 2.957031 8.8125 C 4.492188 8.832031 6.027344 8.835938 7.558594 8.84375 C 7.929688 8.84375 8.296875 8.820312 8.664062 8.851562 C 8.921875 8.875 9.183594 8.945312 9.425781 9.039062 C 9.664062 9.132812 9.886719 9.277344 10.109375 9.414062 C 10.363281 9.566406 10.613281 9.726562 10.851562 9.90625 C 11.179688 10.15625 11.554688 10.316406 11.949219 10.386719 C 12.335938 10.453125 12.734375 10.464844 13.128906 10.472656 C 13.882812 10.484375 14.640625 10.476562 15.425781 10.476562 Z M 15.425781 10.476562 "/>
<path style=" stroke:none;fill-rule:nonzero;fill:rgb(0%,0%,0%);fill-opacity:1;" d="M 15.414062 10.476562 C 14.640625 10.476562 13.882812 10.484375 13.128906 10.472656 C 12.734375 10.464844 12.335938 10.453125 11.949219 10.386719 C 11.554688 10.316406 11.179688 10.15625 10.851562 9.90625 C 10.613281 9.726562 10.363281 9.566406 10.109375 9.414062 C 9.886719 9.277344 9.664062 9.132812 9.425781 9.039062 C 9.183594 8.945312 8.921875 8.875 8.664062 8.851562 C 8.296875 8.820312 7.929688 8.84375 7.558594 8.84375 C 6.027344 8.835938 4.492188 8.832031 2.957031 8.8125 C 2.617188 8.808594 2.292969 8.734375 2.0625 8.4375 C 1.925781 8.265625 1.863281 8.058594 1.835938 7.84375 C 1.808594 7.613281 1.785156 7.378906 1.78125 7.148438 C 1.777344 6.097656 1.78125 5.050781 1.777344 4.003906 C 1.777344 3.570312 1.757812 3.136719 1.757812 2.703125 C 1.753906 2.476562 1.789062 2.257812 1.90625 2.050781 C 1.988281 1.898438 2.113281 1.816406 2.25 1.742188 C 2.425781 1.652344 2.621094 1.632812 2.820312 1.632812 C 3.378906 1.632812 3.9375 1.628906 4.496094 1.632812 C 5.417969 1.640625 6.34375 1.640625 7.265625 1.667969 C 7.542969 1.675781 7.804688 1.789062 8.054688 1.933594 C 8.433594 2.152344 8.757812 2.445312 9.074219 2.746094 C 9.34375 3 9.65625 3.167969 10 3.277344 C 10.195312 3.339844 10.410156 3.371094 10.617188 3.371094 C 12.558594 3.367188 14.5 3.351562 16.441406 3.351562 C 16.742188 3.351562 17.015625 3.472656 17.152344 3.769531 C 17.222656 3.917969 17.265625 4.097656 17.269531 4.265625 C 17.277344 5.097656 17.277344 5.925781 17.273438 6.757812 C 17.265625 7.660156 17.265625 8.566406 17.242188 9.472656 C 17.234375 9.722656 17.210938 9.992188 17.011719 10.191406 C 16.851562 10.351562 16.679688 10.480469 16.4375 10.476562 C 16.101562 10.472656 15.761719 10.476562 15.414062 10.476562 M 7.289062 1.878906 C 6.5 1.867188 5.707031 1.859375 4.917969 1.851562 C 4.542969 1.847656 4.171875 1.851562 3.800781 1.851562 C 3.769531 1.851562 3.738281 1.851562 3.707031 1.847656 C 3.28125 1.800781 2.859375 1.804688 2.433594 1.878906 C 2.257812 1.910156 2.011719 2.136719 1.996094 2.300781 C 1.976562 2.476562 1.964844 2.660156 1.96875 2.839844 C 1.972656 3.546875 1.988281 4.25 1.992188 4.957031 C 1.996094 5.734375 1.992188 6.515625 1.992188 7.296875 C 1.992188 7.523438 2.007812 7.746094 2.066406 7.972656 C 2.179688 8.421875 2.421875 8.558594 2.789062 8.59375 C 3.195312 8.628906 3.605469 8.625 4.015625 8.625 C 5.4375 8.628906 6.859375 8.628906 8.28125 8.625 C 8.628906 8.625 8.964844 8.675781 9.296875 8.78125 C 9.792969 8.941406 10.207031 9.242188 10.632812 9.53125 C 10.839844 9.671875 11.046875 9.828125 11.269531 9.941406 C 11.710938 10.164062 12.1875 10.253906 12.679688 10.257812 C 13.5625 10.265625 14.445312 10.277344 15.332031 10.285156 C 15.671875 10.289062 16.011719 10.300781 16.351562 10.28125 C 16.851562 10.253906 16.980469 10.050781 17.027344 9.625 C 17.0625 9.296875 17.058594 8.964844 17.058594 8.636719 C 17.0625 7.132812 17.0625 5.625 17.058594 4.121094 C 17.058594 3.90625 16.871094 3.632812 16.691406 3.597656 C 16.535156 3.566406 16.371094 3.542969 16.210938 3.539062 C 15.929688 3.539062 15.648438 3.5625 15.367188 3.5625 C 14.265625 3.574219 13.164062 3.582031 12.0625 3.589844 C 11.601562 3.59375 11.140625 3.589844 10.679688 3.59375 C 10.296875 3.59375 9.9375 3.488281 9.59375 3.328125 C 9.257812 3.171875 8.984375 2.925781 8.71875 2.667969 C 8.453125 2.414062 8.167969 2.175781 7.820312 2.035156 C 7.65625 1.96875 7.484375 1.929688 7.289062 1.878906 Z M 7.289062 1.878906 "/>
<path style=" stroke:none;fill-rule:nonzero;fill:rgb(8.235294%,0.392157%,99.607843%);fill-opacity:1;" d="M 7.300781 1.878906 C 7.484375 1.929688 7.65625 1.96875 7.820312 2.035156 C 8.167969 2.175781 8.453125 2.414062 8.71875 2.667969 C 8.984375 2.925781 9.257812 3.171875 9.59375 3.328125 C 9.9375 3.488281 10.296875 3.59375 10.679688 3.59375 C 11.140625 3.589844 11.601562 3.59375 12.0625 3.589844 C 13.164062 3.582031 14.265625 3.574219 15.367188 3.5625 C 15.648438 3.5625 15.929688 3.539062 16.210938 3.539062 C 16.371094 3.542969 16.535156 3.566406 16.691406 3.597656 C 16.871094 3.632812 17.058594 3.90625 17.058594 4.121094 C 17.0625 5.625 17.0625 7.132812 17.058594 8.636719 C 17.058594 8.964844 17.0625 9.296875 17.027344 9.625 C 16.980469 10.050781 16.851562 10.253906 16.351562 10.28125 C 16.011719 10.300781 15.671875 10.289062 15.332031 10.285156 C 14.445312 10.277344 13.5625 10.265625 12.679688 10.257812 C 12.1875 10.253906 11.710938 10.164062 11.269531 9.941406 C 11.046875 9.828125 10.839844 9.671875 10.632812 9.53125 C 10.207031 9.242188 9.792969 8.941406 9.296875 8.78125 C 8.964844 8.675781 8.628906 8.625 8.28125 8.625 C 6.859375 8.628906 5.4375 8.628906 4.015625 8.625 C 3.605469 8.625 3.195312 8.628906 2.789062 8.59375 C 2.421875 8.558594 2.179688 8.421875 2.066406 7.972656 C 2.007812 7.746094 1.992188 7.523438 1.992188 7.296875 C 1.992188 6.515625 1.996094 5.734375 1.992188 4.957031 C 1.988281 4.25 1.972656 3.546875 1.96875 2.839844 C 1.964844 2.660156 1.976562 2.476562 1.996094 2.300781 C 2.011719 2.136719 2.257812 1.910156 2.433594 1.878906 C 2.859375 1.804688 3.28125 1.800781 3.707031 1.847656 C 3.738281 1.851562 3.769531 1.851562 3.800781 1.851562 C 4.171875 1.851562 4.542969 1.847656 4.917969 1.851562 C 5.707031 1.859375 6.5 1.867188 7.300781 1.878906 Z M 7.300781 1.878906 "/>
</g>
</svg>
