<svg version="1.0" xmlns="http://www.w3.org/2000/svg"
    width="20" height="20"
    preserveAspectRatio="xMidYMid meet">
    <path fill="black"
        d="M860 5608 c0 -132 -52 -252 -149 -348 -98 -96 -223 -150 -348 -150
l-53 0 0 -428 c0 -236 3 -1003 7 -1704 l6 -1276 86 -4 c166 -9 294 -83 391
-223 51 -75 73 -147 78 -262 l4 -102 1682 -4 c1670 -3 1682 -3 1791 -25 337
-65 576 -178 865 -409 80 -63 171 -133 202 -154 83 -57 219 -123 323 -158 192
-63 137 -61 1692 -61 l1413 0 0 83 c0 148 52 269 157 367 98 92 213 140 337
140 l56 0 0 1699 0 1699 -87 4 c-52 3 -111 13 -145 25 -190 69 -328 264 -328
463 l0 67 -467 6 c-256 4 -1016 7 -1688 7 -1344 0 -1299 -2 -1499 62 -185 58
-321 139 -511 303 -248 213 -522 349 -841 417 l-109 23 -1432 3 -1433 3 0 -63z
m2340 -498 c485 -7 531 -9 602 -28 223 -60 397 -169 683 -427 158 -142 263
-217 386 -274 175 -82 341 -122 523 -124 61 -1 746 2 1521 6 1529 9 1501 10
1612 -44 86 -42 146 -125 173 -239 17 -70 17 -66 7 -1525 -7 -939 -12 -1238
-22 -1297 -32 -184 -118 -278 -295 -324 -60 -15 -138 -16 -1015 -5 -522 6
-997 14 -1055 16 -218 12 -424 63 -610 153 -52 26 -222 131 -378 235 -302 200
-462 287 -626 342 -204 69 -127 65 -1766 76 -1646 11 -1605 9 -1736 74 -118
58 -181 145 -225 310 -19 72 -22 119 -29 480 -5 220 -11 807 -15 1305 -8 979
-7 987 45 1091 30 59 95 125 152 155 47 24 139 49 208 57 46 5 1193 -3 1860
-13z" />
    <path fill="black"
        d="M1510 5019 c-239 -20 -359 -127 -388 -345 -11 -84 4 -2220 17 -2419
24 -348 145 -496 433 -524 51 -5 307 -10 568 -10 1047 -2 2191 -13 2290 -22
127 -12 235 -38 355 -86 151 -60 215 -96 498 -285 293 -195 449 -279 602 -323
186 -53 193 -54 1258 -70 864 -13 1007 -13 1066 -1 83 17 155 53 198 98 39 40
79 126 92 195 15 77 34 2593 21 2679 -23 145 -97 237 -224 277 -70 22 -82 22
-576 22 -278 0 -950 -2 -1495 -4 l-990 -4 -101 26 c-126 32 -213 65 -316 119
-102 53 -162 98 -318 238 -246 223 -452 352 -635 401 -77 21 -110 22 -780 30
-1118 13 -1495 14 -1575 8z" />
</svg>